<svg xmlns="http://www.w3.org/2000/svg" width="800" height="600" viewBox="0 0 800 600">
  <rect width="800" height="600" fill="#0B2545"/>
  <rect x="40" y="40" width="720" height="520" rx="8" fill="#132D4A"/>
  <rect x="60" y="60" width="180" height="8" rx="4" fill="#C9A227"/>
  <rect x="60" y="80" width="120" height="6" rx="3" fill="#4A6FA5" opacity="0.5"/>
  <rect x="60" y="110" width="680" height="1" fill="#4A6FA5" opacity="0.3"/>
  <rect x="60" y="130" width="220" height="160" rx="6" fill="#1E3A5F"/>
  <rect x="300" y="130" width="220" height="160" rx="6" fill="#1E3A5F"/>
  <rect x="540" y="130" width="200" height="160" rx="6" fill="#1E3A5F"/>
  <text x="170" y="180" text-anchor="middle" font-family="sans-serif" font-size="24" fill="#C9A227" font-weight="bold">$2.4M</text>
  <text x="170" y="200" text-anchor="middle" font-family="sans-serif" font-size="10" fill="#4A6FA5">Revenue</text>
  <text x="410" y="180" text-anchor="middle" font-family="sans-serif" font-size="24" fill="#2E7D32" font-weight="bold">+18%</text>
  <text x="410" y="200" text-anchor="middle" font-family="sans-serif" font-size="10" fill="#4A6FA5">Growth</text>
  <text x="640" y="180" text-anchor="middle" font-family="sans-serif" font-size="24" fill="#C9A227" font-weight="bold">85%</text>
  <text x="640" y="200" text-anchor="middle" font-family="sans-serif" font-size="10" fill="#4A6FA5">Margin</text>
  <rect x="60" y="310" width="680" height="120" rx="6" fill="#1E3A5F"/>
  <rect x="80" y="330" width="160" height="8" rx="4" fill="#C9A227" opacity="0.8"/>
  <rect x="80" y="350" width="640" height="60" rx="4" fill="#0B2545"/>
  <text x="400" y="560" text-anchor="middle" font-family="Georgia, serif" font-size="16" fill="#C9A227" font-weight="bold">TrueWorks</text>
</svg>
