<svg xmlns="http://www.w3.org/2000/svg" width="800" height="600" viewBox="0 0 800 600">
  <rect width="800" height="600" fill="#0B2545"/>
  <rect x="40" y="40" width="720" height="520" rx="8" fill="#132D4A"/>
  <rect x="60" y="60" width="200" height="8" rx="4" fill="#C9A227"/>
  <rect x="60" y="80" width="140" height="6" rx="3" fill="#4A6FA5" opacity="0.5"/>
  <rect x="60" y="120" width="680" height="1" fill="#4A6FA5" opacity="0.3"/>
  <rect x="60" y="140" width="100" height="100" rx="8" fill="#1E3A5F"/>
  <rect x="180" y="140" width="100" height="100" rx="8" fill="#1E3A5F"/>
  <rect x="300" y="140" width="100" height="100" rx="8" fill="#1E3A5F"/>
  <rect x="420" y="140" width="100" height="100" rx="8" fill="#1E3A5F"/>
  <text x="110" y="195" text-anchor="middle" font-family="sans-serif" font-size="14" fill="#C9A227">45%</text>
  <text x="230" y="195" text-anchor="middle" font-family="sans-serif" font-size="14" fill="#C9A227">92%</text>
  <text x="350" y="195" text-anchor="middle" font-family="sans-serif" font-size="14" fill="#C9A227">78%</text>
  <text x="470" y="195" text-anchor="middle" font-family="sans-serif" font-size="14" fill="#C9A227">88%</text>
  <rect x="60" y="260" width="340" height="180" rx="6" fill="#1E3A5F"/>
  <rect x="420" y="260" width="320" height="80" rx="6" fill="#1E3A5F"/>
  <rect x="420" y="360" width="320" height="80" rx="6" fill="#1E3A5F"/>
  <rect x="80" y="280" width="200" height="6" rx="3" fill="#4A6FA5" opacity="0.5"/>
  <rect x="80" y="300" width="160" height="6" rx="3" fill="#4A6FA5" opacity="0.3"/>
  <rect x="80" y="320" width="280" height="80" rx="4" fill="#0B2545"/>
  <text x="400" y="560" text-anchor="middle" font-family="Georgia, serif" font-size="16" fill="#C9A227" font-weight="bold">TrueWorks</text>
</svg>
